<svg width="94" height="78" viewBox="0 0 94 78" fill="none" xmlns="http://www.w3.org/2000/svg">
<path fill-rule="evenodd" clip-rule="evenodd" d="M83.8852 17.2442C78.4493 19.5397 75.3411 13.5557 75.3411 13.5557C79.332 12.3142 82.1812 14.5328 82.1812 14.5328C82.6518 16.3217 83.8852 17.2442 83.8852 17.2442ZM84.6651 16.9057C84.6651 16.9057 79.5403 12.6574 84.9158 6.18286C84.9158 6.18286 89.3122 12.473 84.6651 16.9057ZM80.6021 10.4641C80.6021 10.4641 70.8501 12.2254 68.3972 0.09375C68.3972 0.09375 79.8298 1.07078 80.6021 10.4641ZM86.1131 24.8044C86.1131 24.8044 85.1257 23.6293 85.0839 21.7807C85.0839 21.7807 82.8229 18.981 78.65 19.2944C78.65 19.2944 80.2898 25.8187 86.1131 24.8044ZM86.951 24.65C92.5038 21.3772 89.6813 14.2657 89.6813 14.2657C82.9472 19.3623 86.951 24.65 86.951 24.65ZM86.5162 33.2409C86.5162 33.2409 85.8426 31.8697 86.2478 30.0642C86.2478 30.0642 84.7317 26.8159 80.6021 26.1401C80.6021 26.1401 80.6133 32.8607 86.5162 33.2409ZM87.3672 33.2892C87.3672 33.2892 84.7589 27.2141 92.5334 23.8455C92.5334 23.8455 93.5516 31.4141 87.3672 33.2892ZM85.8585 42.0103C80.1397 40.5266 81.4341 33.9275 81.4341 33.9275C85.3545 35.3662 86.2131 38.8409 86.2131 38.8409C85.4652 40.5363 85.8585 42.0103 85.8585 42.0103ZM86.6852 42.2159C86.6852 42.2159 85.3045 35.7627 93.5895 33.9176C93.5895 33.9176 93.1207 41.5378 86.6852 42.2159ZM82.5867 50.1102C82.5867 50.1102 82.4366 48.5943 83.451 47.0364C83.451 47.0364 83.1653 43.4729 79.5282 41.4361C79.5282 41.4361 77.1825 47.7478 82.5867 50.1102ZM83.3693 50.4438C89.8319 50.7846 91.5309 43.3357 91.5309 43.3357C83.0526 43.8551 83.3693 50.4438 83.3693 50.4438ZM78.8516 56.4962C74.2978 52.7809 78.2939 47.3303 78.2939 47.3303C81.2346 50.2594 80.5293 53.7675 80.5293 53.7675C79.1236 54.9966 78.8516 56.4962 78.8516 56.4962ZM79.514 57.0249C79.514 57.0249 81.0203 50.5988 89.3258 52.3573C89.3258 52.3573 85.6416 59.0748 79.514 57.0249ZM72.8717 62.564C72.8717 62.564 73.5119 61.1777 75.1828 60.3306C75.1828 60.3306 76.7527 57.1068 74.6423 53.5497C74.6423 53.5497 69.3974 57.8534 72.8717 62.564ZM73.3769 63.2384C78.7956 66.7209 84.0604 61.116 84.0604 61.116C76.4594 57.382 73.3769 63.2384 73.3769 63.2384ZM66.074 67.6464C63.3817 62.4627 69.239 59.0078 69.239 59.0078C70.7651 62.8437 68.7086 65.7911 68.7086 65.7911C66.9235 66.3725 66.074 67.6464 66.074 67.6464ZM66.4679 68.3892C66.4679 68.3892 70.4318 63.0706 77.3559 67.9147C77.3559 67.9147 71.2742 72.6539 66.4679 68.3892ZM58.3519 70.5763C58.3519 70.5763 59.5264 69.5853 61.4056 69.5113C61.4056 69.5113 64.2098 67.2386 63.8221 63.1376C63.8221 63.1376 57.2215 64.8624 58.3519 70.5763ZM58.5215 71.3981C61.9414 76.8047 69.1185 73.9077 69.1185 73.9077C63.8256 67.3659 58.5215 71.3981 58.5215 71.3981ZM50.1616 72.3789C50.1616 72.3789 51.5148 71.6376 53.3698 71.9335C53.3698 71.9335 56.578 70.2571 57.0297 66.1622C57.0297 66.1622 50.2125 66.5569 50.1616 72.3789ZM50.1616 73.217C50.1616 73.217 56.1773 70.3072 60.0364 77.7555C60.0364 77.7555 52.4173 79.1867 50.1616 73.217ZM10.1129 17.2442C15.5473 19.5397 18.6561 13.5557 18.6561 13.5557C14.6656 12.3142 11.8149 14.5328 11.8149 14.5328C11.3449 16.3217 10.1129 17.2442 10.1129 17.2442ZM9.33123 16.9057C9.33123 16.9057 14.4575 12.6574 9.08083 6.18286C9.08083 6.18286 4.68567 12.473 9.33123 16.9057ZM13.3946 10.4641C13.3946 10.4641 23.1469 12.2254 25.5997 0.09375C25.5997 0.09375 14.1683 1.07078 13.3946 10.4641ZM7.88414 24.8044C7.88414 24.8044 8.87038 23.6293 8.91418 21.7807C8.91418 21.7807 11.1738 18.981 15.3469 19.2944C15.3469 19.2944 13.7074 25.8187 7.88414 24.8044ZM7.04619 24.65C1.49431 21.3772 4.31598 14.2657 4.31598 14.2657C11.0512 19.3623 7.04619 24.65 7.04619 24.65ZM7.48189 33.2409C7.48189 33.2409 8.15527 31.8697 7.74976 30.0642C7.74976 30.0642 9.26671 26.8159 13.3946 26.1401C13.3946 26.1401 13.383 32.8607 7.48189 33.2409ZM6.63033 33.2892C6.63033 33.2892 9.23889 27.2141 1.46353 23.8455C1.46353 23.8455 0.445321 31.4141 6.63033 33.2892ZM8.13662 42.0103C13.8566 40.5266 12.564 33.9275 12.564 33.9275C8.64276 35.3662 7.7841 38.8409 7.7841 38.8409C8.53206 40.5363 8.13662 42.0103 8.13662 42.0103ZM7.3114 42.2159C7.3114 42.2159 8.6919 35.7627 0.40625 33.9176C0.40625 33.9176 0.87569 41.5378 7.3114 42.2159ZM11.4088 50.1102C11.4088 50.1102 11.5603 48.5943 10.5475 47.0364C10.5475 47.0364 10.8313 43.4729 14.4687 41.4361C14.4687 41.4361 16.8162 47.7478 11.4088 50.1102ZM10.6283 50.4438C4.16532 50.7846 2.46693 43.3357 2.46693 43.3357C10.9459 43.8551 10.6283 50.4438 10.6283 50.4438ZM15.1454 56.4962C19.6986 52.7809 15.7039 47.3303 15.7039 47.3303C12.7626 50.2594 13.4692 53.7675 13.4692 53.7675C14.8728 54.9966 15.1454 56.4962 15.1454 56.4962ZM14.4841 57.0249C14.4841 57.0249 12.9772 50.5988 4.67117 52.3573C4.67117 52.3573 8.35654 59.0748 14.4841 57.0249ZM21.1267 62.564C21.1267 62.564 20.4856 61.1777 18.8136 60.3306C18.8136 60.3306 17.2454 57.1068 19.3546 53.5497C19.3546 53.5497 24.6011 57.8534 21.1267 62.564ZM20.6197 63.2384C15.2019 66.7209 9.93594 61.116 9.93594 61.116C17.5393 57.382 20.6197 63.2384 20.6197 63.2384ZM27.9235 67.6464C30.6165 62.4627 24.7585 59.0078 24.7585 59.0078C23.2333 62.8437 25.2881 65.7911 25.2881 65.7911C27.072 66.3725 27.9235 67.6464 27.9235 67.6464ZM27.5281 68.3892C27.5281 68.3892 23.5651 63.0706 16.6404 67.9147C16.6404 67.9147 22.7218 72.6539 27.5281 68.3892ZM35.645 70.5763C35.645 70.5763 34.4705 69.5853 32.5934 69.5113C32.5934 69.5113 29.7877 67.2386 30.1763 63.1376C30.1763 63.1376 36.7763 64.8624 35.645 70.5763ZM35.476 71.3981C32.0556 76.8047 24.8799 73.9077 24.8799 73.9077C30.1704 67.3659 35.476 71.3981 35.476 71.3981ZM43.8345 72.3789C43.8345 72.3789 42.4827 71.6376 40.6277 71.9335C40.6277 71.9335 37.4186 70.2571 36.9678 66.1622C36.9678 66.1622 43.7854 66.5569 43.8345 72.3789ZM43.8345 73.217C43.8345 73.217 37.8203 70.3072 33.9597 77.7555C33.9597 77.7555 41.5793 79.1867 43.8345 73.217Z" fill="black"/>
</svg>
